<?xml version="1.0" standalone="no"?>
<!DOCTYPE svg PUBLIC "-//W3C//DTD SVG 20010904//EN"
 "http://www.w3.org/TR/2001/REC-SVG-20010904/DTD/svg10.dtd">
<svg version="1.0" xmlns="http://www.w3.org/2000/svg"
 width="626.000000pt" height="438.000000pt" viewBox="0 0 626.000000 438.000000"
 preserveAspectRatio="xMidYMid meet">

<g transform="translate(0.000000,438.000000) scale(0.100000,-0.100000)"
fill="#000000" stroke="none">
<path d="M0 3719 l0 -661 23 6 c118 34 151 39 247 39 126 0 203 -18 318 -74
238 -117 382 -340 382 -594 0 -127 -38 -258 -99 -344 -20 -28 -21 -28 -73 -16
l-52 11 -12 65 c-44 235 -202 413 -439 494 -56 19 -204 31 -259 21 l-36 -7 0
-225 c0 -148 3 -223 10 -219 6 4 10 -10 10 -35 0 -23 5 -50 10 -61 9 -16 7
-19 -10 -19 -20 0 -20 -1 -20 -1050 l0 -1050 396 0 c340 0 395 2 385 14 -8 10
-9 16 -1 21 13 8 30 -3 30 -21 0 -12 331 -14 2510 -14 1841 0 2510 3 2510 11
0 7 -9 9 -22 6 -27 -8 -85 50 -117 116 -23 48 -51 163 -51 214 0 37 1 37 -195
79 -66 14 -129 30 -140 35 -11 5 -32 11 -48 13 -15 3 -36 8 -47 11 -14 5 -20
2 -20 -9 0 -19 -21 -21 -39 -4 -11 11 -13 8 -8 -16 3 -20 -2 -41 -18 -65 -12
-20 -28 -54 -35 -76 -19 -58 -35 -71 -48 -37 -5 15 -19 52 -31 82 -11 30 -37
111 -58 179 -26 85 -43 125 -55 128 -36 10 26 128 103 197 66 59 130 80 220
73 166 -14 281 -124 308 -295 5 -31 7 -60 5 -63 -4 -6 95 -29 126 -29 9 0 26
20 39 47 46 96 120 165 206 193 90 30 236 6 313 -50 l42 -30 0 55 0 55 -94 0
c-176 0 -361 46 -541 134 -314 153 -550 416 -664 740 -161 457 7 990 407 1291
223 167 463 248 744 249 l148 1 0 573 0 572 -3130 0 -3130 0 0 -661z m190
-1544 c28 -15 50 -42 50 -63 0 -16 -78 -26 -95 -12 -16 13 -29 65 -20 80 9 14
31 12 65 -5z m137 -37 c-3 -7 -5 -2 -5 12 0 14 2 19 5 13 2 -7 2 -19 0 -25z
m300 10 c-3 -8 -6 -5 -6 6 -1 11 2 17 5 13 3 -3 4 -12 1 -19z m524 -698 c185
-35 316 -180 327 -360 11 -195 -102 -356 -299 -425 -32 -12 -39 -12 -50 1 -7
9 -23 13 -39 11 -53 -9 -225 31 -344 79 -16 6 -18 4 -13 -9 10 -27 -27 -3 -58
37 -24 31 -24 36 -14 89 15 72 6 114 -35 175 -31 46 -32 51 -21 88 21 69 56
127 109 179 116 112 282 164 437 135z m3172 -106 c41 -14 53 -14 80 -3 44 19
125 16 169 -5 21 -10 56 -37 79 -59 86 -87 133 -202 154 -385 8 -70 18 -141
21 -158 4 -24 2 -33 -12 -38 -30 -12 -34 1 -55 203 -19 187 -79 324 -171 388
-34 23 -52 28 -99 28 -31 0 -61 -3 -65 -8 -4 -4 15 -31 43 -60 122 -123 158
-306 87 -437 -41 -76 -89 -105 -173 -105 -76 0 -121 18 -175 71 -59 58 -80
108 -80 194 -1 66 4 85 33 145 24 48 54 89 98 131 l64 62 -52 12 c-189 46
-395 -107 -487 -362 -23 -64 -26 -88 -27 -198 0 -116 2 -128 27 -175 36 -69
97 -122 204 -180 123 -67 193 -115 238 -165 35 -39 37 -43 22 -59 -16 -15 -19
-13 -49 20 -47 54 -121 107 -225 164 -125 67 -183 120 -224 202 -28 58 -33 78
-36 164 -5 118 14 216 62 315 122 253 334 368 549 298z m-2257 -433 c54 -33
78 -99 82 -223 5 -133 -18 -234 -82 -363 -77 -155 -187 -243 -270 -215 -78 26
-116 114 -116 273 0 86 2 98 16 93 9 -3 21 -6 27 -6 7 0 18 -4 26 -9 11 -7 9
-13 -9 -31 -20 -20 -21 -28 -15 -93 7 -74 22 -118 41 -124 15 -5 69 125 69
167 0 30 4 36 25 38 64 9 120 124 86 176 -8 13 -29 27 -46 31 l-32 7 20 21
c31 35 40 58 43 121 6 90 -21 84 -92 -23 -34 -52 -35 -63 -12 -87 17 -17 15
-17 -29 -11 l-46 6 11 -28 c13 -35 4 -71 -29 -110 -32 -39 -52 -41 -24 -2 15
19 23 46 25 89 7 139 160 322 270 322 17 0 44 -9 61 -19z m-1720 -163 c18 -34
12 -47 -12 -27 -18 15 -34 50 -27 62 7 12 22 -1 39 -35z m-16 -48 c10 -12 22
-20 26 -19 17 4 69 -14 88 -30 21 -17 126 -176 126 -189 0 -5 -15 -16 -32 -25
-18 -9 -50 -28 -70 -42 l-36 -24 -56 90 c-37 59 -56 102 -56 123 0 17 -7 49
-15 71 -8 22 -14 46 -15 53 0 19 21 14 40 -8z m1172 -58 c-7 -21 -21 -47 -31
-56 -19 -17 -20 -17 -30 2 -14 27 -4 75 21 102 19 20 22 20 36 6 13 -13 14
-21 4 -54z m146 -3 c3 -51 -29 -111 -63 -118 -19 -3 -19 -2 1 20 27 29 36 60
36 111 -1 55 22 44 26 -13z m830 -191 c15 -15 16 -41 0 -36 -13 5 -31 48 -20
48 5 0 13 -5 20 -12z m2965 -56 c26 -9 47 -22 47 -28 0 -14 -50 -84 -74 -104
-21 -17 -36 -21 -94 -23 -52 -2 -73 15 -49 41 17 19 17 19 17 61 0 15 9 40 21
55 23 29 45 29 132 -2z m-2985 -72 c-7 -11 -19 -20 -27 -20 -11 0 -10 5 4 20
10 11 22 20 27 20 4 0 3 -9 -4 -20z m2632 -234 c0 -41 -37 -76 -79 -76 -38 0
-91 30 -91 51 0 19 140 63 163 52 4 -2 7 -15 7 -27z"/>
<path d="M997 1093 c-43 -65 -39 -78 28 -78 32 0 50 6 69 24 24 23 24 24 8 50
-19 31 -44 55 -58 58 -6 1 -27 -23 -47 -54z"/>
<path d="M4323 1251 c-94 -68 -153 -167 -160 -271 -4 -57 -1 -72 24 -120 34
-65 101 -116 168 -126 64 -9 127 23 163 84 24 42 27 56 27 142 0 88 -3 101
-33 162 -29 59 -118 158 -142 158 -4 0 -25 -13 -47 -29z"/>
<path d="M2057 752 c-26 -48 -36 -118 -21 -156 5 -13 9 -13 40 1 34 17 34 17
34 82 -1 36 -6 79 -13 95 l-12 29 -28 -51z"/>
<path d="M1956 403 c-15 -20 -19 -45 -20 -111 l-2 -85 34 39 c19 22 45 61 59
88 l24 48 -22 24 c-29 31 -49 30 -73 -3z"/>
<path d="M5829 2049 c-369 -87 -572 -530 -396 -864 81 -153 271 -264 453 -265
108 0 255 52 337 120 l37 32 -2 441 -3 441 -70 37 c-110 60 -251 83 -356 58z
m101 -520 c0 -54 -43 -111 -71 -93 -24 15 3 103 38 123 24 13 33 5 33 -30z"/>
<path d="M5525 450 c105 -26 135 -29 106 -10 -15 9 -180 41 -202 39 -8 -1 36
-14 96 -29z"/>
<path d="M6205 380 c-3 -5 -2 -10 4 -10 5 0 13 5 16 10 3 6 2 10 -4 10 -5 0
-13 -4 -16 -10z"/>
<path d="M6040 265 c0 -7 5 -17 10 -20 6 -3 10 -17 10 -30 0 -12 6 -25 13 -28
16 -6 50 7 64 25 10 12 3 19 -42 41 -42 20 -55 23 -55 12z"/>
<path d="M6240 15 c-10 -12 -10 -15 4 -15 9 0 16 7 16 15 0 8 -2 15 -4 15 -2
0 -9 -7 -16 -15z"/>
</g>
</svg>
